<svg xmlns="http://www.w3.org/2000/svg" width="1280" height="760" viewBox="0 0 1280 760" role="img" aria-labelledby="title desc">
  <title id="title">凤里村农田静态定位截图</title>
  <desc id="desc">浙江省温州市平阳县鳌江镇凤里村农田的静态示意截图，展示农田、水系、道路、监控点和人工核验状态。</desc>
  <defs>
    <linearGradient id="soil" x1="0" x2="1" y1="0" y2="1">
      <stop offset="0" stop-color="#8f7a45"/>
      <stop offset="1" stop-color="#5f6f34"/>
    </linearGradient>
    <pattern id="rows" width="26" height="26" patternUnits="userSpaceOnUse" patternTransform="rotate(16)">
      <rect width="26" height="26" fill="#7d9b4e"/>
      <rect width="8" height="26" fill="#426f3c" opacity=".42"/>
      <rect x="15" width="4" height="26" fill="#c6b46d" opacity=".42"/>
    </pattern>
    <pattern id="vegetable" width="34" height="34" patternUnits="userSpaceOnUse" patternTransform="rotate(-8)">
      <rect width="34" height="34" fill="#6d9b50"/>
      <circle cx="8" cy="8" r="3" fill="#cfe2a4" opacity=".75"/>
      <circle cx="24" cy="20" r="3" fill="#345f35" opacity=".5"/>
    </pattern>
    <filter id="shadow" x="-20%" y="-20%" width="140%" height="140%">
      <feDropShadow dx="0" dy="12" stdDeviation="12" flood-color="#1f2b1e" flood-opacity=".18"/>
    </filter>
  </defs>

  <rect width="1280" height="760" fill="#dbe4c8"/>
  <path d="M0 122 C180 88 330 112 500 78 C724 34 918 72 1280 28 L1280 0 L0 0Z" fill="#5c7f52" opacity=".56"/>
  <path d="M0 668 C216 615 371 656 520 616 C756 553 927 584 1280 525 L1280 760 L0 760Z" fill="#51693d" opacity=".48"/>

  <path d="M-40 478 C190 430 348 438 560 384 C800 323 990 325 1330 264" fill="none" stroke="#c9b18a" stroke-width="42" opacity=".95"/>
  <path d="M-50 486 C190 438 348 446 560 392 C800 331 990 333 1330 272" fill="none" stroke="#f2e4c8" stroke-width="16" opacity=".88"/>
  <path d="M1010 -20 C954 150 942 272 858 404 C780 526 748 612 724 796" fill="none" stroke="#8ab6d6" stroke-width="58" opacity=".92"/>
  <path d="M1012 -20 C956 150 944 272 860 404 C782 526 750 612 726 796" fill="none" stroke="#c8e4f2" stroke-width="24" opacity=".94"/>

  <g filter="url(#shadow)">
    <path d="M104 165 L352 112 L476 285 L210 350 Z" fill="url(#rows)" stroke="#e5e0bf" stroke-width="5"/>
    <path d="M380 110 L620 70 L758 222 L490 288 Z" fill="#9a8e4e" stroke="#e5e0bf" stroke-width="5"/>
    <path d="M190 370 L480 304 L565 508 L250 568 Z" fill="url(#vegetable)" stroke="#e5e0bf" stroke-width="5"/>
    <path d="M502 310 L790 238 L830 470 L590 526 Z" fill="url(#rows)" stroke="#e5e0bf" stroke-width="5"/>
    <path d="M846 474 L1030 430 L1104 618 L800 690 L756 553 Z" fill="#7e9f4f" stroke="#e5e0bf" stroke-width="5"/>
    <path d="M70 578 L250 566 L336 706 L92 728 Z" fill="#6f8f46" stroke="#e5e0bf" stroke-width="5"/>
  </g>

  <g opacity=".64">
    <path d="M116 174 L350 124" stroke="#2f5b33" stroke-width="4"/>
    <path d="M136 200 L370 150" stroke="#2f5b33" stroke-width="4"/>
    <path d="M156 226 L390 176" stroke="#2f5b33" stroke-width="4"/>
    <path d="M210 382 L488 322" stroke="#d4e5a5" stroke-width="4"/>
    <path d="M228 420 L508 360" stroke="#d4e5a5" stroke-width="4"/>
    <path d="M246 458 L528 398" stroke="#d4e5a5" stroke-width="4"/>
    <path d="M518 330 L790 260" stroke="#2f5b33" stroke-width="4"/>
    <path d="M534 368 L806 298" stroke="#2f5b33" stroke-width="4"/>
    <path d="M550 406 L818 338" stroke="#2f5b33" stroke-width="4"/>
  </g>

  <g transform="translate(502 236)">
    <circle r="54" fill="#e4472e" opacity=".2"/>
    <path d="M0 -78 C43 -78 78 -43 78 0 C78 52 18 96 0 128 C-18 96 -78 52 -78 0 C-78 -43 -43 -78 0 -78Z" fill="#d93c2e" stroke="#fff" stroke-width="8"/>
    <circle r="28" fill="#fff"/>
    <circle r="14" fill="#d93c2e"/>
  </g>

  <g transform="translate(760 190)">
    <rect x="-72" y="-28" width="144" height="56" rx="28" fill="#203528" opacity=".95"/>
    <text x="0" y="8" text-anchor="middle" font-family="Arial, 'Noto Sans SC', sans-serif" font-size="24" font-weight="700" fill="#fff">监控点</text>
  </g>

  <g transform="translate(54 44)" filter="url(#shadow)">
    <rect width="452" height="132" rx="16" fill="#fffdf8" opacity=".96"/>
    <text x="24" y="42" font-family="Arial, 'Noto Sans SC', sans-serif" font-size="30" font-weight="800" fill="#203528">凤里村农田定位截图</text>
    <text x="24" y="78" font-family="Arial, 'Noto Sans SC', sans-serif" font-size="20" fill="#506156">浙江省温州市平阳县鳌江镇凤里村</text>
    <text x="24" y="110" font-family="Arial, 'Noto Sans SC', sans-serif" font-size="18" fill="#6a756b">静态截图展示，田界和坐标由接口人现场核验</text>
  </g>

  <g transform="translate(878 58)" filter="url(#shadow)">
    <rect width="330" height="176" rx="16" fill="#fffdf8" opacity=".96"/>
    <text x="22" y="42" font-family="Arial, 'Noto Sans SC', sans-serif" font-size="24" font-weight="800" fill="#203528">地块图例</text>
    <rect x="24" y="62" width="28" height="18" rx="4" fill="url(#rows)"/>
    <text x="64" y="78" font-family="Arial, 'Noto Sans SC', sans-serif" font-size="18" fill="#506156">菜地区 / 轮作区</text>
    <rect x="24" y="96" width="28" height="18" rx="4" fill="#8ab6d6"/>
    <text x="64" y="112" font-family="Arial, 'Noto Sans SC', sans-serif" font-size="18" fill="#506156">水系 / 灌溉沟渠</text>
    <rect x="24" y="130" width="28" height="18" rx="4" fill="#f2e4c8"/>
    <text x="64" y="146" font-family="Arial, 'Noto Sans SC', sans-serif" font-size="18" fill="#506156">田间路 / 到场路线</text>
  </g>

  <text x="54" y="724" font-family="Arial, 'Noto Sans SC', sans-serif" font-size="18" fill="#4f5d52">RentAFarmer 静态农田截图 | 非实时地图嵌入 | 田界待平阳鳌江接口人核验</text>
</svg>
